<svg width="64" height="64" viewBox="0 0 64 64" fill="none" xmlns="http://www.w3.org/2000/svg">
<circle cx="32" cy="32" r="32" fill="white"/>
<path d="M47.853 12L48.0017 32.1803L44.5246 31.8811C40.4039 31.8052 36.2738 32.4462 32.4195 33.8731C30.8553 34.4524 29.2458 35.1919 27.8385 36.068V56.1592L16.0332 48.264L16.0059 29.4833C16.0499 29.2138 16.2081 29.247 16.314 29.1532C16.8409 28.6867 17.4298 28.2653 18.0055 27.8593C23.3146 24.1129 29.4444 21.5619 35.8681 20.4294V12H47.853ZM17.3108 30.4294V42.7749C17.3108 42.7856 17.406 42.8806 17.4286 42.864C17.5226 42.7405 17.6368 42.5245 17.726 42.4188C24.6885 34.2007 34.5215 29.8406 45.4168 30.338C45.6464 30.3486 46.0592 30.4685 46.2531 30.4567C46.3078 30.4531 46.3958 30.4068 46.3958 30.37V21.5856C46.3958 21.569 46.3351 21.4468 46.2959 21.4349C45.8046 21.493 45.2943 21.3886 44.822 21.3755C35.5707 21.1037 26.486 23.8423 18.9917 29.1521C18.7324 29.3361 17.3453 30.2323 17.3108 30.4305V30.4294Z" fill="#071840"/>
<path d="M35.8672 35.178C35.9183 35.0178 38.2951 34.5595 38.6401 34.5026C41.0156 34.1168 43.5482 34.0004 45.9476 34.1987C46.1594 34.2165 47.927 34.3708 47.9437 34.4705L47.9116 48.1468L35.8672 56.1596V35.178Z" fill="#071840"/>
<path d="M27.8362 12V20.3986C27.1403 20.7499 26.36 20.9814 25.6367 21.2901C22.2215 22.743 18.987 24.5889 16 26.7791V12H27.8362Z" fill="#071840"/>
</svg>
